<?xml version="1.0" encoding="UTF-8" standalone="no"?>
        <svg 
    viewBox="3.4423828125 -87.26806640625 447.2900390625 57.53173828125"
    width="443.84765625"
    height="144.7998046875"
   xmlns="http://www.w3.org/2000/svg"
   xmlns:svg="http://www.w3.org/2000/svg">
   <path d="M15.75-30.18L17.29-30.91Q25.71-28.71 30.10-25.56Q34.50-22.41 35.78-19.01Q37.06-15.60 36.00-12.74Q34.94-9.89 32.34-8.28Q29.74-6.67 26.40-7.03Q23.07-7.40 19.92-10.47L19.92-10.47Q20.29-15.67 18.97-20.98Q17.65-26.29 15.75-30.18L15.75-30.18ZM120.92-10.03L120.92-125.98L145.97-123.63Q145.75-121.95 144.47-120.89Q143.19-119.82 140.41-119.38L140.41-119.38L140.41-8.72Q140.41-1.98 138.79 2.78Q137.18 7.54 132.02 10.33Q126.86 13.11 116.09 14.14L116.09 14.14Q115.80 9.23 115.06 5.79Q114.33 2.34 112.50 0L112.50 0Q110.67-2.27 107.96-3.85Q105.25-5.42 99.61-6.45L99.61-6.45L99.61-8.42Q99.61-8.42 101.92-8.28Q104.22-8.13 107.48-7.95Q110.74-7.76 113.71-7.62Q116.67-7.47 117.92-7.47L117.92-7.47Q120.92-7.47 120.92-10.03L120.92-10.03ZM34.79-129.13L34.79-129.13L46.51-118.36L72.73-118.36L80.71-125.98L94.92-114.48L94.92-116.09L118.21-113.96Q117.99-112.57 116.97-111.55Q115.94-110.52 113.23-110.08L113.23-110.08L113.23-27.76Q113.23-27.03 110.96-25.82Q108.69-24.61 105.29-23.62Q101.88-22.63 98.36-22.63L98.36-22.63L94.92-22.63L94.92-114.18Q93.46-112.43 89.72-111.77L89.72-111.77Q88.92-95.65 87.34-87.74Q85.77-79.83 81.59-76.68L81.59-76.68Q79.10-74.85 75.95-74.16Q72.80-73.46 69.29-73.32L69.29-73.32Q69.29-75.81 68.88-78.11Q68.48-80.42 67.53-81.88L67.53-81.88Q65.33-85.25 60.13-86.87L60.13-86.87L60.13-88.77Q62.40-88.55 64.97-88.44Q67.53-88.33 68.99-88.33L68.99-88.33Q70.24-88.33 70.83-89.28L70.83-89.28Q72.07-90.82 72.88-96.64Q73.68-102.47 74.12-114.18L74.12-114.18L68.55-114.18Q67.75-104.15 63.98-95.21Q60.21-86.28 49.95-80.13L49.95-80.13L64.67-77.27Q64.23-75.81 62.55-74.93Q60.86-74.05 57.28-73.97L57.28-73.97Q69.51-72.95 76.61-70.13Q83.72-67.31 86.68-63.61Q89.65-59.91 89.54-56.32Q89.43-52.73 87.12-50.17Q84.81-47.61 81.30-47.02Q77.78-46.44 74.12-48.93L74.12-48.93L73.97-49.22Q73.32-47.53 70.53-47.53L70.53-47.53L56.69-47.53L56.69-37.06L63.87-37.06L71.85-46.95Q71.85-46.95 74.38-45.04Q76.90-43.14 80.38-40.43Q83.86-37.72 86.72-35.23L86.72-35.23Q86.06-32.89 82.62-32.89L82.62-32.89L56.69-32.89L56.69-7.62L58.96-7.76Q60.64-12.89 62.18-19.52Q63.72-26.15 64.67-31.35L64.67-31.35L85.47-24.17Q84.96-22.92 83.57-22.16Q82.18-21.39 79.83-21.61L79.83-21.61Q76.54-18.68 71.92-15.01Q67.31-11.35 62.55-8.13L62.55-8.13L91.63-10.18L91.77-8.13Q79.76-4.25 61.93 0.55Q44.09 5.35 18.31 11.43L18.31 11.43Q16.70 14.14 13.77 14.87L13.77 14.87L6.30-4.98Q11.50-5.05 19.78-5.46Q28.05-5.86 38.38-6.45L38.38-6.45L38.38-32.89L9.30-32.89L8.13-37.06L38.38-37.06L38.38-47.53L26.07-47.53L25.49-49.51Q20.58-46.66 15.31-44.31Q10.03-41.97 4.61-40.06L4.61-40.06L3.74-41.24Q10.99-46.80 17.47-54.09Q23.95-61.38 29.00-68.88Q34.06-76.39 36.91-82.62L36.91-82.62L47.97-80.57L47.09-81.45Q48.19-83.28 49.04-85.07Q49.88-86.87 50.54-88.77L50.54-88.77Q48.63-86.13 44.97-85.51Q41.31-84.89 37.50-88.04L37.50-88.04L37.21-91.63Q33.84-87.96 28.97-82.91Q24.10-77.86 17.58-71.70L17.58-71.70Q16.85-68.48 14.43-67.53L14.43-67.53L3.44-84.16L10.33-86.13L10.33-123.12L26.51-118.80Q29.15-121.73 31.35-124.55Q33.54-127.37 34.79-129.13ZM73.17-51.12L73.17-51.12Q70.97-56.10 66.58-62.00Q62.18-67.90 56.25-72.73L56.25-72.73Q51.20-67.46 44.35-62.04Q37.50-56.62 29.37-51.78L29.37-51.78L52.66-51.78L60.28-61.38Q60.28-61.38 62.40-59.77Q64.53-58.15 67.53-55.81Q70.53-53.47 73.17-51.12ZM30.62-107.67L32.08-108.47Q42.77-106.42 47.24-102.36Q51.71-98.29 52.08-94.34L52.08-94.34Q53.03-99.10 53.32-104.04Q53.61-108.98 53.69-114.18L53.69-114.18L50.10-114.18Q48.71-112.94 45.63-114.18L45.63-114.18Q42.70-113.23 37.61-112.32Q32.52-111.40 27.03-110.67L27.03-110.67L27.03-91.48L36.47-94.78Q35.52-98.36 33.95-101.81Q32.37-105.25 30.62-107.67L30.62-107.67ZM238.04-127.37L238.04-127.37L269.97-121.80Q269.17-117.92 263.82-117.48L263.82-117.48Q260.23-113.53 255.21-107.92Q250.20-102.32 246.02-97.92L246.02-97.92L266.53-97.92L277.22-110.08L295.83-95.21Q294.87-94.12 293.44-93.16Q292.02-92.21 289.38-91.63L289.38-91.63L289.38 5.57Q289.38 6.15 287.15 7.58Q284.91 9.01 280.85 10.22Q276.78 11.43 271.22 11.43L271.22 11.43L267.48 11.43L267.48-0.59L237.30-0.59L237.30 7.03Q237.30 8.20 232.80 10.40Q228.30 12.60 220.17 12.60L220.17 12.60L216.43 12.60L216.43-48.27Q214.09-45.48 210.06-45.04Q206.03-44.60 201.93-48.27L201.93-48.27Q201.71-53.69 199.95-59.25Q198.19-64.82 196.07-69.43L196.07-69.43L196.07 8.42Q196.07 9.23 193.51 10.62Q190.94 12.01 187.10 13.15Q183.25 14.28 179.22 14.28L179.22 14.28L175.05 14.28L175.05-44.09Q170.58-37.94 165.20-32.23Q159.81-26.51 153.59-21.61L153.59-21.61L151.83-23.07Q157.18-31.49 161.35-41.89Q165.53-52.29 168.53-63.54Q171.53-74.78 173.36-85.77L173.36-85.77L156.74-85.77L155.57-90.01L175.05-90.01L175.05-127.95L201.64-125.39Q201.34-123.71 200.28-122.61Q199.22-121.51 196.07-121.07L196.07-121.07L196.07-90.31L203.98-103.34Q203.98-103.34 206.07-101.22Q208.15-99.10 211.05-96.06Q213.94-93.02 216.43-90.16L216.43-90.16L216.43-106.35L238.18-98.22Q238.33-104.44 238.29-112.65Q238.26-120.85 238.04-127.37ZM214.23-85.77L196.07-85.77L196.07-72.88Q204.35-70.75 209.29-67.68Q214.23-64.60 216.43-61.23L216.43-61.23L216.43-86.28Q215.55-85.77 214.23-85.77L214.23-85.77ZM267.48-50.24L237.30-50.24L237.30-4.83L267.48-4.83L267.48-50.24ZM237.30-93.75L237.30-54.42L267.48-54.42L267.48-93.75L237.30-93.75ZM374.41-19.92L375.88-20.73Q384.81-18.16 388.73-14.54Q392.65-10.91 392.87-7.36Q393.09-3.81 390.89-1.39Q388.70 1.03 385.29 1.21Q381.88 1.39 378.59-1.83L378.59-1.83Q378.81-6.52 377.45-11.50Q376.10-16.48 374.41-19.92L374.41-19.92ZM313.62-20.87L315.31-21.61Q323.14-19.63 326.55-16.63Q329.96-13.62 330.07-10.62Q330.18-7.62 328.13-5.60Q326.07-3.59 322.96-3.44Q319.85-3.30 316.92-6.15L316.92-6.15Q317.29-9.96 316.26-14.06Q315.23-18.16 313.62-20.87L313.62-20.87ZM413.23-68.26L422.39-78.74Q422.39-78.74 425.28-76.76Q428.17-74.78 432.17-71.92Q436.16-69.07 439.38-66.43L439.38-66.43Q438.94-64.01 435.28-64.01L435.28-64.01L402.47-64.01L415.65-61.38Q415.43-60.21 414.26-59.55Q413.09-58.89 410.23-58.67L410.23-58.67Q414.11-55.52 420.48-53.47Q426.86-51.42 434.00-50.28Q441.14-49.15 447.29-48.78L447.29-48.78L447.29-46.80Q443.04-45.34 440.48-41.31Q437.92-37.28 437.55-32.67L437.55-32.67Q428.10-36.18 420.34-42.74Q412.57-49.29 408.62-57.28L408.62-57.28Q405.69-53.17 401.04-49.15Q396.39-45.12 390.89-41.53L390.89-41.53L406.35-41.53L412.21-48.12Q412.21-48.12 414.07-46.80Q415.94-45.48 418.54-43.54Q421.14-41.60 423.27-39.77L423.27-39.77Q422.83-37.35 419.53-37.35L419.53-37.35L412.21-37.35L412.21-26.07L417.33-26.07L425.24-35.67Q425.24-35.67 427.73-33.84Q430.22-32.01 433.63-29.37Q437.04-26.73 439.82-24.32L439.82-24.32Q439.16-21.90 435.72-21.90L435.72-21.90L412.21-21.90L412.21 2.56L413.23 2.56Q414.70-3.22 415.91-10.03Q417.11-16.85 417.63-21.02L417.63-21.02L435.86-16.19Q435.64-15.09 434.47-14.06Q433.30-13.04 430.81-13.04L430.81-13.04Q428.54-10.11 424.66-5.79Q420.78-1.46 416.67 2.56L416.67 2.56L421.66 2.56L430.37-8.13Q430.37-8.13 433.08-6.08Q435.79-4.03 439.53-1.14Q443.26 1.76 446.26 4.32L446.26 4.32Q445.61 6.74 442.24 6.74L442.24 6.74L362.26 6.74L361.08 2.56L394.04 2.56L394.04-21.90L372.58-21.90L371.41-26.07L394.04-26.07L394.04-37.35L384.74-37.35L384.59-37.79Q379.98-35.23 375.11-33.03Q370.24-30.83 365.41-29.22L365.41-29.22L369.58-25.20Q368.92-22.78 365.70-22.78L365.70-22.78L347.97-22.78L347.97-4.83L349.51-4.98Q350.61-8.86 351.67-13.66Q352.73-18.46 353.54-22.19L353.54-22.19L371.26-16.77Q370.24-13.77 365.70-13.92L365.70-13.92Q363.65-12.01 360.90-9.78Q358.15-7.54 355.22-5.42L355.22-5.42L370.39-6.59L370.68-4.32Q362.18-1.76 349.40 1.50Q336.62 4.76 318.31 9.01L318.31 9.01Q317.72 10.47 316.77 11.21Q315.82 11.94 314.72 12.30L314.72 12.30L305.86-1.98Q310.25-2.05 316.92-2.49Q323.58-2.93 331.79-3.59L331.79-3.59L331.79-22.78L310.77-22.78L309.59-27.03L331.79-27.03L331.79-36.77L323.73-36.77L323.36-37.65Q318.90-34.86 313.99-32.34Q309.08-29.81 303.88-27.91L303.88-27.91L302.71-29.22Q308.28-33.84 313.11-39.84Q317.94-45.85 321.68-52.19Q325.42-58.52 327.61-64.01L327.61-64.01L314.58-64.01L313.33-68.26L346.22-68.26Q344.90-68.92 343.36-70.17L343.36-70.17Q343.65-74.05 342.66-77.86Q341.67-81.67 340.21-84.16L340.21-84.16L324.90-84.16L323.73-88.33L364.97-88.33L364.97-95.73L347.53-95.73L346.66-99.02Q337.28-95.07 326.70-91.77Q316.11-88.48 305.13-86.72L305.13-86.72L304.61-88.33Q316.92-93.02 328.49-99.90Q340.06-106.79 349.07-114.62Q358.08-122.46 362.70-129.93L362.70-129.93L388.04-121.95Q387.74-120.41 386.10-119.60Q384.45-118.80 380.42-118.36L380.42-118.36Q392.21-113.96 409.79-111.88Q427.37-109.79 446.85-110.67L446.85-110.67L446.85-108.18Q443.19-106.79 440.92-103.71Q438.65-100.63 437.48-96.86Q436.30-93.09 435.86-89.58L435.86-89.58Q429.13-90.82 422.83-92.58Q416.53-94.34 410.67-96.61L410.67-96.61Q412.87-94.92 416.75-92.03Q420.63-89.14 423.78-86.57L423.78-86.57Q423.34-84.16 419.82-84.16L419.82-84.16L401.51-84.16L416.53-79.47Q415.58-76.61 410.82-76.83L410.82-76.83Q407.96-74.85 403.89-72.62Q399.83-70.39 395.58-68.26L395.58-68.26L413.23-68.26ZM350.54-27.03L357.28-36.18L363.72-30.62Q370.17-34.79 376.32-40.54Q382.47-46.29 387.12-52.48Q391.77-58.67 393.90-64.01L393.90-64.01L335.08-64.01L352.51-60.57Q352.08-59.03 349.80-58.23L349.80-58.23Q359.33-57.20 364.20-54.53Q369.07-51.86 370.42-48.60Q371.78-45.34 370.57-42.52Q369.36-39.70 366.50-38.38Q363.65-37.06 360.28-38.38L360.28-38.38Q359.47-36.77 356.84-36.77L356.84-36.77L347.97-36.77L347.97-27.03L350.54-27.03ZM341.09-40.94L347.83-48.49L357.28-41.82Q355.15-45.12 351.89-49.00Q348.63-52.88 344.68-56.25L344.68-56.25Q341.53-52.44 337.35-48.49Q333.18-44.53 328.20-40.94L328.20-40.94L341.09-40.94ZM380.42-99.90L387.01-107.52Q387.01-107.52 389.14-106.02Q391.26-104.52 394.15-102.32Q397.05-100.12 399.46-98.07L399.46-98.07Q399.02-95.73 395.58-95.73L395.58-95.73L384.74-95.73L384.74-88.33L400.49-88.33L408.33-97.49Q390.23-104.81 378.44-116.82L378.44-116.82Q373.39-112.94 365.73-108.51Q358.08-104.08 348.63-99.90L348.63-99.90L380.42-99.90ZM393.90-84.16L393.90-84.16L384.74-84.16L384.74-68.26L389.43-68.26Q390.53-71.85 391.77-76.14Q393.02-80.42 393.90-84.16ZM364.97-84.16L349.51-84.16Q356.69-82.25 359.07-79.14Q361.45-76.03 360.39-72.95Q359.33-69.87 356.25-68.26L356.25-68.26L364.97-68.26L364.97-84.16Z"/>
    </svg>
        