<svg width="254" height="254" version="1.1" xmlns="http://www.w3.org/2000/svg" xmlns:xlink="http://www.w3.org/1999/xlink"><path d="M155.96 33.00L155.96 33.00Q155.96 35.03 153.42 39.86L153.42 39.86L152.65 41.89Q151.89 44.43 148.59 63.23L148.59 63.23Q145.54 81.51 135.13 89.90L135.13 89.90L130.81 89.64Q128.78 86.34 118.87 75.16L118.87 75.16Q117.86 73.89 116.84 72.88L116.84 72.88L116.84 71.86L128.52 74.91Q130.81 75.16 132.33 74.40L132.33 74.40Q138.94 71.35 140.46 51.54L140.46 51.54Q141.22 42.40 139.95 38.08L139.95 38.08L138.18 37.32Q128.52 39.35 118.62 42.65L118.62 42.65Q123.44 46.97 124.21 49.51L124.21 49.51Q113.03 69.58 106.68 76.18L106.68 76.18Q100.58 82.53 93.73 85.58L93.73 85.58L93.22 83.55Q106.93 66.78 110.49 58.15L110.49 58.15Q113.28 51.29 113.54 44.43L113.54 44.43L105.41 46.21Q104.39 46.21 103.12 45.70L103.12 45.70Q97.54 43.67 97.28 41.38L97.28 41.38Q99.57 40.11 111.00 38.59L111.00 38.59Q113.03 38.33 114.55 37.83L114.55 37.83Q133.10 33.25 140.46 27.92L140.46 27.92Q145.03 27.92 155.96 33.00ZM203.45 225.53L203.45 225.53Q199.39 225.28 194.56 218.17L194.56 218.17Q192.53 215.37 191.52 214.36L191.52 214.36Q187.45 209.78 173.23 200.13L173.23 200.13Q170.18 197.85 167.89 196.07L167.89 196.07L167.64 194.80Q169.16 194.04 181.61 196.07L181.61 196.07Q195.33 198.10 196.85 192.51L196.85 192.51L197.61 187.94L196.85 78.47Q196.85 56.88 196.85 55.61L196.85 55.61Q195.58 41.38 187.96 33.51L187.96 33.51Q187.96 27.67 198.37 30.46L198.37 30.46Q208.79 33.51 212.60 39.10L212.60 39.10Q213.61 40.62 213.61 42.14L213.61 42.14Q213.61 43.16 211.58 50.78L211.58 50.78L211.07 53.07Q209.55 66.53 209.04 77.70L209.04 77.70L209.04 134.85L212.34 184.64Q213.11 218.93 203.45 225.53ZM171.45 83.55L171.45 83.55L169.93 132.06Q168.91 149.84 165.35 153.65L165.35 153.65Q162.31 153.65 159.26 148.32L159.26 148.32Q158.75 147.55 158.50 147.30L158.50 147.30Q157.23 139.93 159.26 118.09L159.26 118.09Q161.29 94.47 155.45 81.01L155.45 81.01Q155.45 78.21 156.97 76.94L156.97 76.94Q166.62 77.96 171.45 83.55ZM84.33 69.83L84.33 69.83Q60.96 95.23 52.58 105.90L52.58 105.90Q48.26 105.14 45.21 99.29L45.21 99.29Q44.45 97.52 44.45 95.99L44.45 95.99Q44.20 94.47 46.74 89.13L46.74 89.13L47.24 87.61Q50.29 76.94 46.74 61.70L46.74 61.70Q44.45 52.56 40.39 47.73L40.39 47.73Q40.13 41.38 52.32 49.26L52.32 49.26Q53.09 49.76 53.34 50.02L53.34 50.02L67.31 33.00Q71.12 27.67 72.14 24.36L72.14 24.36L72.90 19.54Q73.15 19.03 73.91 18.78L73.91 18.78Q78.49 17.25 87.38 25.63L87.38 25.63Q88.90 26.90 89.92 28.17L89.92 28.17Q89.66 31.22 83.82 33.76L83.82 33.76Q81.79 34.78 80.77 35.29L80.77 35.29L54.86 53.83Q54.10 63.23 55.12 75.16L55.12 75.16L56.13 82.78L57.40 84.05Q62.99 81.26 77.72 70.34L77.72 70.34Q80.26 68.31 82.04 67.04L82.04 67.04Q82.04 65.77 78.99 59.92L78.99 59.92Q76.71 55.35 78.99 53.07L78.99 53.07L89.15 59.92Q92.46 62.72 93.22 65.51L93.22 65.51Q93.73 66.78 93.73 68.31L93.73 68.31Q93.73 76.69 87.12 72.12L87.12 72.12Q85.85 71.35 84.33 69.83ZM137.41 121.65L137.16 121.65Q116.84 109.71 98.30 101.07L98.30 101.07L68.33 132.06Q41.40 158.22 20.07 158.22L20.07 158.22Q49.78 135.87 54.86 131.55L54.86 131.55Q79.25 110.98 86.36 94.21L86.36 94.21L88.65 88.12L88.90 87.86Q98.04 88.37 103.12 93.20L103.12 93.20L101.85 97.01Q131.83 103.61 137.16 108.69L137.16 108.69Q140.72 112.25 141.73 117.84L141.73 117.84L141.48 120.88Q140.97 121.90 139.70 122.15L139.70 122.15L137.41 121.65ZM134.37 163.05L134.37 163.05Q126.49 167.37 111.25 179.30L111.25 179.30L109.22 179.30L109.22 177.27Q117.09 165.59 118.36 162.29L118.36 162.29Q119.89 157.97 119.89 153.65L119.89 153.65Q124.46 152.38 130.30 156.44L130.30 156.44Q134.87 159.49 134.37 163.05ZM136.65 178.54L138.94 178.80Q138.94 182.86 131.57 185.91L131.57 185.91Q122.94 189.97 110.49 194.29L110.49 194.29Q76.20 206.99 59.18 216.64L59.18 216.64Q53.85 215.88 45.47 209.28L45.47 209.28Q44.20 208.51 43.69 207.75L43.69 207.75Q42.16 206.23 42.42 203.94L42.42 203.94Q42.42 203.43 42.42 202.67L42.42 202.67Q44.20 200.13 50.29 200.89L50.29 200.89Q51.31 201.15 52.07 201.15L52.07 201.15Q57.40 201.15 83.57 193.78L83.57 193.78Q87.38 192.77 89.92 192.00L89.92 192.00L90.17 158.22L71.88 162.03Q64.26 162.79 59.18 159.75L59.18 159.75L58.42 157.97L88.39 150.60L89.41 150.09Q90.42 145.78 88.14 137.14L88.14 137.14Q87.88 136.38 87.88 135.62L87.88 135.62Q76.71 134.60 75.18 134.09L75.18 134.09Q72.90 133.33 71.12 131.81L71.12 131.81Q71.37 130.28 74.68 129.01L74.68 129.01Q78.23 129.01 96.01 123.42L96.01 123.42Q115.06 117.33 121.16 123.17L121.16 123.17Q121.16 125.71 118.62 126.73L118.62 126.73L96.77 133.08Q100.84 135.62 102.36 144.51L102.36 144.51L116.08 140.44Q122.68 139.43 127 143.74L127 143.74Q127 147.81 108.97 152.63L108.97 152.63Q103.12 154.16 101.60 154.92L101.60 154.92L99.57 188.70Q108.20 187.18 135.13 178.80L135.13 178.80Q135.89 178.80 136.65 178.54L136.65 178.54ZM77.22 179.81L77.22 179.81L77.47 187.18L76.45 189.46L75.44 189.97Q70.10 188.96 63.25 180.83L63.25 180.83Q58.67 175.49 56.13 173.72L56.13 173.72L56.39 169.40Q71.12 173.21 75.69 178.03L75.69 178.03Q76.45 178.80 77.22 179.81Z" stroke="#000" fill="black" /></svg>