<svg width="254" height="254" version="1.1" xmlns="http://www.w3.org/2000/svg" xmlns:xlink="http://www.w3.org/1999/xlink"><path d="M215.65 88.48L215.65 88.48Q215.65 91.52 211.07 99.91L211.07 99.91Q208.53 104.73 208.53 108.29L208.53 108.29L207.26 166.96Q207.26 175.09 202.95 187.54L202.95 187.54Q198.63 199.47 193.29 197.19L193.29 197.19Q189.99 193.12 181.10 177.63L181.10 177.63Q180.59 176.87 180.34 176.11L180.34 176.11Q171.96 175.60 141.73 177.38L141.73 177.38L140.21 177.38Q139.70 183.73 137.41 186.01L137.41 186.01Q125.22 185.25 128.27 148.17L128.27 148.17Q129.03 138.01 129.03 136.74L129.03 136.74Q129.03 103.72 119.89 86.44L119.89 86.44Q122.68 82.63 133.35 90.25L133.35 90.25Q134.87 91.27 135.38 91.52L135.38 91.52L145.54 90.00L154.69 57.74Q157.73 44.03 156.46 32.60L156.46 32.60Q154.43 29.29 154.43 28.28L154.43 28.28Q157.23 24.21 167.89 25.23L167.89 25.23Q170.43 25.48 171.45 25.48L171.45 25.48Q180.09 28.53 180.34 28.79L180.34 28.79Q181.86 29.55 182.88 31.07L182.88 31.07L182.37 34.37Q175.77 42.76 163.32 66.63L163.32 66.63L154.43 83.14Q152.40 86.19 150.37 88.73L150.37 88.73Q156.46 87.97 175.77 81.62L175.77 81.62Q188.72 77.30 197.10 77.30L197.10 77.30Q210.31 82.38 215.65 88.48ZM191.77 95.84L191.77 95.84L190.50 92.79Q187.45 90.51 183.13 90.76L183.13 90.76L172.72 93.30L140.46 100.41Q139.95 100.67 139.45 100.67L139.45 100.67L138.94 129.37Q165.86 120.73 175.77 123.02L175.77 123.02Q182.37 124.54 183.64 130.13L183.64 130.13Q181.86 132.16 181.36 132.16L181.36 132.16Q178.31 133.43 138.94 136.23L138.94 136.23L140.21 168.99L171.70 164.17Q175.01 163.91 178.05 163.91L178.05 163.91Q182.37 164.17 188.72 169.50L188.72 169.50Q189.23 169.76 189.74 170.26L189.74 170.26L191.01 168.49Q193.55 144.36 193.04 117.69L193.04 117.69Q192.79 107.02 191.77 95.84ZM109.22 141.82L109.22 141.82L104.90 141.31L85.09 126.58Q83.57 141.82 83.31 191.35L83.31 191.35Q83.31 194.39 83.31 197.19L83.31 197.19Q83.31 206.84 75.44 213.19L75.44 213.19Q70.10 211.67 67.31 199.98L67.31 199.98Q67.06 198.97 66.80 198.71L66.80 198.71Q64.26 189.31 68.83 170.77L68.83 170.77Q71.88 158.58 72.14 152.74L72.14 152.74Q73.15 124.29 72.90 117.18L72.90 117.18Q55.88 150.45 21.84 178.14L21.84 178.14L18.80 178.39L18.03 177.38L18.54 175.60L18.80 175.34Q21.08 171.28 33.02 156.04L33.02 156.04Q35.05 153.50 36.58 151.21L36.58 151.21Q59.44 120.99 69.60 97.62L69.60 97.62L47.50 101.18Q35.81 101.94 29.46 95.84L29.46 95.84Q29.46 94.57 33.02 93.05L33.02 93.05Q42.16 92.29 69.09 85.94L69.09 85.94Q71.63 85.43 73.91 84.92L73.91 84.92L74.42 51.65Q73.41 29.80 65.53 18.63L65.53 18.63Q65.53 11.51 77.22 16.59L77.22 16.59Q87.38 21.17 91.19 27.01L91.19 27.01Q92.20 28.28 92.20 29.29L92.20 29.29Q92.20 30.06 90.17 36.15L90.17 36.15Q89.92 36.41 89.92 36.66L89.92 36.66Q85.85 48.34 85.60 78.82L85.60 78.82Q85.60 79.84 85.34 80.86L85.34 80.86L100.08 78.57Q107.44 78.32 111.51 83.65L111.51 83.65Q111.25 88.22 87.63 93.30L87.63 93.30Q86.11 93.56 85.34 93.81L85.34 93.81L84.58 119.21L84.58 119.46L100.58 123.53Q109.73 127.08 111.25 134.20L111.25 134.20L111.51 136.23Q111.51 140.55 109.22 141.82Z" stroke="#000" fill="black" /></svg>