<svg width="254" height="254" version="1.1" xmlns="http://www.w3.org/2000/svg" xmlns:xlink="http://www.w3.org/1999/xlink"><path d="M137.67 108.20L137.67 109.47L119.38 121.41L118.62 121.67L117.60 120.90Q123.70 111.00 124.46 108.20L124.46 108.20Q125.48 105.41 125.48 102.11L125.48 102.11Q129.03 99.31 135.89 106.43L135.89 106.43L137.67 108.20ZM228.60 177.55L230.38 179.32Q203.96 188.47 189.23 185.17L189.23 185.17L184.15 183.13Q183.64 183.13 183.39 182.88L183.39 182.88Q182.63 182.12 175.51 175.77L175.51 175.77Q153.92 157.48 148.59 151.89L148.59 151.89Q145.54 148.84 143.00 145.54L143.00 145.54Q131.83 158.24 114.81 172.97L114.81 172.97Q116.33 172.97 136.91 169.42L136.91 169.42Q157.23 165.86 160.02 170.94L160.02 170.94Q160.27 173.74 143.00 177.04L143.00 177.04Q141.48 177.55 140.72 177.55L140.72 177.55Q145.03 179.83 144.27 189.23L144.27 189.23Q144.27 191.26 144.27 192.02L144.27 192.02L159.77 188.72Q165.86 188.21 168.91 192.28L168.91 192.28Q168.66 195.58 146.81 198.63L146.81 198.63L143.76 199.14L141.73 230.89Q141.73 231.90 141.48 232.66L141.48 232.66Q145.29 232.66 165.10 228.85L165.10 228.85Q187.45 224.79 196.60 232.41L196.60 232.41Q196.85 232.92 197.36 233.17L197.36 233.17Q199.39 235.20 199.39 237.49L199.39 237.49L196.60 239.01Q156.21 239.01 130.05 242.06L130.05 242.06L104.39 245.87Q99.06 246.38 95.00 244.86L95.00 244.86L90.68 242.57Q89.92 242.06 89.15 241.05L89.15 241.05Q89.15 239.52 91.44 239.01L91.44 239.01L133.35 234.44L133.35 201.42L118.87 201.68Q113.54 201.17 109.98 198.37L109.98 198.37Q110.24 195.83 128.78 194.56L128.78 194.56Q131.83 194.56 132.84 194.31L132.84 194.31Q132.84 183.39 131.06 179.32L131.06 179.32Q122.68 180.34 118.11 178.56L118.11 178.56Q115.06 177.29 113.03 174.50L113.03 174.50Q100.33 183.64 91.95 185.17L91.95 185.17L91.95 183.39Q121.16 161.04 131.57 143.51L131.57 143.51Q134.87 137.92 137.16 132.59L137.16 132.59Q93.22 135.64 65.79 140.97L65.79 140.97L74.42 144.78Q75.18 145.29 75.95 146.05L75.95 146.05Q75.95 147.32 73.41 151.13L73.41 151.13Q72.90 151.89 72.64 152.65L72.64 152.65Q88.65 154.69 93.22 157.73L93.22 157.73Q97.28 160.53 97.54 164.59L97.54 164.59Q97.79 166.37 97.28 168.15L97.28 168.15L96.27 169.67L92.20 169.42Q89.66 167.64 75.44 160.27L75.44 160.27Q71.37 158.24 68.83 156.21L68.83 156.21L45.47 178.82L73.66 173.99Q86.87 172.72 86.61 178.56L86.61 178.56Q83.06 180.34 69.09 183.13L69.09 183.13L67.06 183.64Q70.87 184.91 70.10 192.28L70.10 192.28Q69.85 193.80 69.85 194.56L69.85 194.56L82.55 193.29Q86.87 193.55 89.15 196.34L89.15 196.34Q89.15 198.12 87.38 199.39L87.38 199.39L69.60 203.45L67.31 232.16L92.71 228.60L92.96 228.60Q93.73 228.85 93.73 230.63L93.73 230.63Q87.12 235.20 56.13 243.84L56.13 243.84Q39.12 248.41 32.51 251.21L32.51 251.21L29.72 250.95L21.34 243.59Q19.05 240.54 19.05 236.98L19.05 236.98Q20.83 235.71 27.94 236.47L27.94 236.47Q28.96 236.73 29.97 236.73L29.97 236.73Q33.27 236.73 53.34 234.19L53.34 234.19Q56.39 233.68 58.93 233.43L58.93 233.43L59.69 205.23L43.18 206.50Q35.05 206.50 31.50 202.69L31.50 202.69L33.02 200.91Q48.26 200.15 59.44 197.36L59.44 197.36Q59.44 188.72 59.18 188.21L59.18 188.21Q58.93 186.69 58.17 185.67L58.17 185.67Q46.23 185.67 42.16 181.86L42.16 181.86L24.38 194.06Q13.21 200.66 3.30 200.66L3.30 200.66L32.51 177.80Q53.59 159.77 62.48 141.73L62.48 141.73Q51.05 140.72 48.26 139.19L48.26 139.19Q45.21 137.67 43.94 134.62L43.94 134.62Q45.72 133.60 92.96 130.05L92.96 130.05Q95.76 129.79 96.77 129.79L96.77 129.79L97.03 102.62L76.96 104.39Q69.85 104.39 65.02 102.11L65.02 102.11L64.01 100.58L65.79 99.06Q68.83 99.06 92.46 96.01L92.46 96.01Q94.74 95.76 96.77 95.50L96.77 95.50L95.50 82.80Q89.92 84.07 84.07 83.06L84.07 83.06L78.23 81.28Q76.45 80.52 75.18 79.25L75.18 79.25L51.56 98.04Q39.62 106.43 29.21 109.47L29.21 109.47L27.18 108.97L27.69 107.44Q80.77 67.06 96.27 41.40L96.27 41.40Q97.54 39.37 97.03 32.51L97.03 32.51Q96.77 28.96 98.55 27.18L98.55 27.18Q107.95 27.43 113.28 39.88L113.28 39.88Q113.54 40.39 113.79 40.64L113.79 40.64L113.03 44.96L142.49 62.48Q156.72 70.36 169.16 73.66L169.16 73.66L204.22 83.31L204.98 84.07Q196.34 89.66 175.26 91.44L175.26 91.44Q172.72 91.69 170.43 91.69L170.43 91.69Q162.81 91.69 156.97 86.87L156.97 86.87Q156.46 86.61 155.96 86.11L155.96 86.11L140.21 74.68Q133.60 69.60 108.71 47.75L108.71 47.75Q106.93 49.28 87.12 68.33L87.12 68.33Q82.30 73.15 78.23 76.45L78.23 76.45Q90.68 76.45 106.17 71.63L106.17 71.63Q122.94 66.29 127.51 72.90L127.51 72.90Q127.25 75.95 111.25 79.25L111.25 79.25Q106.43 80.01 105.16 80.77L105.16 80.77Q107.70 85.09 107.19 92.71L107.19 92.71L129.54 88.14Q131.83 87.63 134.11 87.63L134.11 87.63L138.68 90.17L139.70 92.20L139.70 92.71L137.67 94.23L107.19 100.33L105.92 128.27L134.62 123.19Q158.75 120.40 159.26 128.78L159.26 128.78Q156.97 130.30 148.59 131.57L148.59 131.57L149.10 138.18L145.29 142.49Q171.96 163.32 223.27 176.28L223.27 176.28Q225.81 177.04 228.60 177.55L228.60 177.55ZM83.57 116.33L85.34 119.89Q85.34 125.48 83.31 125.98L83.31 125.98Q77.47 124.71 69.85 116.08L69.85 116.08L69.60 113.54L69.60 113.28Q74.42 112.01 79.76 114.30L79.76 114.30Q81.79 115.06 83.57 116.33L83.57 116.33ZM172.97 209.80L172.97 209.80L153.92 222.50Q152.65 222.50 152.15 221.23L152.15 221.23Q158.24 211.07 158.75 210.06L158.75 210.06Q160.02 206.50 160.02 202.18L160.02 202.18Q163.83 199.90 169.67 204.47L169.67 204.47Q173.23 207.26 172.97 209.80ZM108.46 209.80L108.46 209.80Q113.79 208.53 119.89 212.09L119.89 212.09Q123.44 214.12 124.97 216.92L124.97 216.92Q126.24 218.95 126.24 223.01L126.24 223.01Q125.48 229.87 116.33 220.73L116.33 220.73Q109.73 214.12 108.46 209.80ZM91.95 212.60L91.95 212.60Q90.17 213.36 79.50 219.71L79.50 219.71L74.42 222.50L74.17 222.00L80.77 211.33Q82.04 208.79 82.04 206.25L82.04 206.25Q83.31 205.49 86.61 206.25L86.61 206.25Q92.20 210.06 91.95 212.60ZM33.27 216.41L33.27 216.41Q33.27 213.36 34.04 212.60L34.04 212.60Q45.72 214.63 49.53 219.71L49.53 219.71Q51.31 223.01 50.04 225.81L50.04 225.81Q49.28 227.84 46.74 227.84L46.74 227.84Q42.93 227.84 33.27 216.41Z" stroke="#000" fill="black" /></svg>